<svg width="25" height="25" viewBox="0 0 25 25" fill="none" xmlns="http://www.w3.org/2000/svg">
<path opacity="0.5" d="M12.9734 0.149902C14.075 0.149902 15.1375 0.290527 16.1609 0.571777C17.1844 0.853027 18.1414 1.25537 19.032 1.77881C19.9227 2.30225 20.7313 2.92725 21.4578 3.65381C22.1844 4.38037 22.8094 5.19287 23.3328 6.09131C23.8563 6.98975 24.2586 7.94678 24.5399 8.9624C24.8211 9.97803 24.9656 11.0405 24.9734 12.1499C24.9734 13.2515 24.8328 14.314 24.5516 15.3374C24.2703 16.3608 23.868 17.3179 23.3445 18.2085C22.8211 19.0991 22.1961 19.9077 21.4695 20.6343C20.743 21.3608 19.9305 21.9858 19.032 22.5093C18.1336 23.0327 17.1766 23.4351 16.1609 23.7163C15.1453 23.9976 14.0828 24.1421 12.9734 24.1499C11.8719 24.1499 10.8094 24.0093 9.78595 23.728C8.76251 23.4468 7.80548 23.0444 6.91486 22.521C6.02423 21.9976 5.21564 21.3726 4.48907 20.646C3.76251 19.9194 3.13751 19.1069 2.61407 18.2085C2.09064 17.3101 1.68829 16.3569 1.40704 15.3491C1.12579 14.3413 0.981262 13.2749 0.97345 12.1499C0.97345 11.0483 1.11407 9.98584 1.39532 8.9624C1.67657 7.93896 2.07892 6.98193 2.60236 6.09131C3.12579 5.20068 3.75079 4.39209 4.47736 3.66553C5.20392 2.93896 6.01642 2.31396 6.91486 1.79053C7.81329 1.26709 8.76642 0.864746 9.77423 0.583496C10.782 0.302246 11.8484 0.157715 12.9734 0.149902ZM22.4539 7.6499C22.157 7.01709 21.7977 6.42334 21.3758 5.86865C20.9539 5.31396 20.4852 4.80225 19.9695 4.3335C19.4539 3.86475 18.8953 3.45459 18.2938 3.10303C17.6922 2.75146 17.0633 2.4585 16.407 2.22412C16.6883 2.61475 16.9422 3.02881 17.1688 3.46631C17.3953 3.90381 17.5945 4.35303 17.7664 4.81396C17.9383 5.2749 18.0906 5.74756 18.2234 6.23193C18.3563 6.71631 18.4656 7.18896 18.5516 7.6499H22.4539ZM23.4734 12.1499C23.4734 11.1108 23.3289 10.1108 23.0399 9.1499H18.7859C18.8484 9.6499 18.8953 10.146 18.9266 10.6382C18.9578 11.1304 18.9734 11.6343 18.9734 12.1499C18.9734 12.6577 18.9578 13.1577 18.9266 13.6499C18.8953 14.1421 18.8484 14.6421 18.7859 15.1499H23.0399C23.3289 14.189 23.4734 13.189 23.4734 12.1499ZM12.9734 22.6499C13.3563 22.6499 13.7117 22.5444 14.0399 22.3335C14.368 22.1226 14.6766 21.8452 14.9656 21.5015C15.2547 21.1577 15.5047 20.771 15.7156 20.3413C15.9266 19.9116 16.1258 19.4702 16.3133 19.0171C16.5008 18.564 16.6453 18.1343 16.7469 17.728C16.8484 17.3218 16.9383 16.9624 17.0164 16.6499H8.93048C8.99298 16.9546 9.08282 17.314 9.20001 17.728C9.3172 18.1421 9.46173 18.5718 9.63361 19.0171C9.80548 19.4624 10.0008 19.8999 10.2195 20.3296C10.4383 20.7593 10.6922 21.1499 10.9813 21.5015C11.2703 21.853 11.575 22.1304 11.8953 22.3335C12.2156 22.5366 12.575 22.6421 12.9734 22.6499ZM17.2742 15.1499C17.3367 14.6499 17.3836 14.1538 17.4149 13.6616C17.4461 13.1694 17.4656 12.6655 17.4734 12.1499C17.4734 11.6421 17.4578 11.1421 17.4266 10.6499C17.3953 10.1577 17.3445 9.65771 17.2742 9.1499H8.67267C8.61017 9.6499 8.56329 10.146 8.53204 10.6382C8.50079 11.1304 8.48126 11.6343 8.47345 12.1499C8.47345 12.6577 8.48907 13.1577 8.52032 13.6499C8.55157 14.1421 8.60236 14.6421 8.67267 15.1499H17.2742ZM2.47345 12.1499C2.47345 13.189 2.61798 14.189 2.90704 15.1499H7.16095C7.09845 14.6499 7.05157 14.1538 7.02032 13.6616C6.98907 13.1694 6.97345 12.6655 6.97345 12.1499C6.97345 11.6421 6.98907 11.1421 7.02032 10.6499C7.05157 10.1577 7.09845 9.65771 7.16095 9.1499H2.90704C2.61798 10.1108 2.47345 11.1108 2.47345 12.1499ZM12.9734 1.6499C12.5906 1.6499 12.2352 1.75537 11.907 1.96631C11.5789 2.17725 11.2703 2.45459 10.9813 2.79834C10.6922 3.14209 10.4422 3.52881 10.2313 3.9585C10.0203 4.38818 9.82111 4.82959 9.63361 5.28271C9.44611 5.73584 9.30157 6.16553 9.20001 6.57178C9.09845 6.97803 9.00861 7.3374 8.93048 7.6499H17.0164C16.9539 7.34521 16.8641 6.98584 16.7469 6.57178C16.6297 6.15771 16.4852 5.72803 16.3133 5.28271C16.1414 4.8374 15.9461 4.3999 15.7274 3.97021C15.5086 3.54053 15.2547 3.1499 14.9656 2.79834C14.6766 2.44678 14.3719 2.16943 14.0516 1.96631C13.7313 1.76318 13.3719 1.65771 12.9734 1.6499ZM9.53986 2.22412C8.88361 2.45068 8.2547 2.74365 7.65314 3.10303C7.05157 3.4624 6.49298 3.87256 5.97736 4.3335C5.46173 4.79443 4.99298 5.30225 4.57111 5.85693C4.14923 6.41162 3.78986 7.00928 3.49298 7.6499H7.39532C7.48907 7.18115 7.59845 6.7085 7.72345 6.23193C7.84845 5.75537 7.99689 5.28662 8.16876 4.82568C8.34064 4.36475 8.54376 3.91162 8.77814 3.46631C9.01251 3.021 9.26642 2.60693 9.53986 2.22412ZM3.49298 16.6499C3.78986 17.2827 4.14923 17.8765 4.57111 18.4312C4.99298 18.9858 5.46173 19.4976 5.97736 19.9663C6.49298 20.4351 7.05157 20.8452 7.65314 21.1968C8.2547 21.5483 8.88361 21.8413 9.53986 22.0757C9.25861 21.6851 9.0047 21.271 8.77814 20.8335C8.55157 20.396 8.35236 19.9468 8.18048 19.4858C8.00861 19.0249 7.85626 18.5522 7.72345 18.0679C7.59064 17.5835 7.48126 17.1108 7.39532 16.6499H3.49298ZM16.407 22.0757C17.0633 21.8491 17.6922 21.5562 18.2938 21.1968C18.8953 20.8374 19.4539 20.4272 19.9695 19.9663C20.4852 19.5054 20.9539 18.9976 21.3758 18.4429C21.7977 17.8882 22.157 17.2905 22.4539 16.6499H18.5516C18.4578 17.1187 18.3484 17.5913 18.2234 18.0679C18.0984 18.5444 17.95 19.0132 17.7781 19.4741C17.6063 19.9351 17.4031 20.3882 17.1688 20.8335C16.9344 21.2788 16.6805 21.6929 16.407 22.0757Z" fill="white"/>
</svg>
