<svg width="24" height="25" viewBox="0 0 24 25" fill="none" xmlns="http://www.w3.org/2000/svg">
<path opacity="0.5" d="M20.3582 20.3549L23.0067 23.0151L21.952 24.0698L19.2918 21.4214L16.6317 24.0815L15.577 23.0151L18.2371 20.3549L15.577 17.6948L16.6317 16.6401L19.2918 19.3003L21.952 16.6401L23.0067 17.7065L20.3582 20.3549ZM15.5887 20.3549L12.9285 23.0034L14.0184 24.1049H3.19025C2.87775 24.1049 2.58478 24.0464 2.31134 23.9292C2.0379 23.812 1.79962 23.6518 1.5965 23.4487C1.39337 23.2456 1.23322 23.0073 1.11603 22.7339C0.99884 22.4604 0.940247 22.1674 0.940247 21.8549C0.940247 21.644 0.963684 21.4448 1.01056 21.2573C1.05743 21.0698 1.13947 20.8862 1.25665 20.7065L7.92462 9.08151C7.96368 9.0112 7.99103 8.9487 8.00665 8.89401C8.02228 8.83932 8.034 8.76901 8.04181 8.68307V1.60495H6.54181V0.10495H15.5418V1.60495H14.0418V8.68307C14.0418 8.76901 14.0496 8.83932 14.0652 8.89401C14.0809 8.9487 14.1121 9.01511 14.159 9.09323L16.8426 13.7807L15.741 14.8706L12.8582 9.84323C12.7567 9.66354 12.6785 9.47604 12.6238 9.28073C12.5692 9.08542 12.5418 8.8862 12.5418 8.68307V1.60495H9.54181V8.68307C9.54181 8.8862 9.51447 9.08542 9.45978 9.28073C9.40509 9.47604 9.32697 9.66354 9.2254 9.84323L5.3465 16.6049H14.0184L12.9285 17.6948L15.5887 20.3549Z" fill="white"/>
</svg>
