<svg width="24" height="25" viewBox="0 0 24 25" fill="none" xmlns="http://www.w3.org/2000/svg">
<path opacity="0.5" d="M1.88947 5.08057V9.604C1.88947 10.4946 1.99493 11.3501 2.20587 12.1704C2.41681 12.9907 2.70978 13.7798 3.08478 14.5376C3.45978 15.2954 3.909 16.0181 4.43243 16.7056C4.95587 17.3931 5.51837 18.0415 6.11993 18.6509C6.7215 19.2603 7.36603 19.8345 8.05353 20.3735C8.74103 20.9126 9.42853 21.4126 10.116 21.8735C9.95197 22.272 9.86993 22.6821 9.86993 23.104C9.86993 23.2524 9.88165 23.4009 9.90509 23.5493C9.09259 23.0415 8.29181 22.4868 7.50275 21.8853C6.71368 21.2837 5.96759 20.6392 5.26447 19.9517C4.56134 19.2642 3.9129 18.5259 3.31915 17.7368C2.7254 16.9478 2.20978 16.1274 1.77228 15.2759C1.33478 14.4243 0.994934 13.5181 0.752747 12.5571C0.510559 11.5962 0.389465 10.6118 0.389465 9.604V3.604C1.0379 3.604 1.66681 3.58057 2.27618 3.53369C2.88556 3.48682 3.48322 3.40088 4.06915 3.27588C4.65509 3.15088 5.22931 2.9751 5.79181 2.74854C6.35431 2.52197 6.9129 2.2251 7.46759 1.85791C8.11603 1.43604 8.77618 1.13135 9.44806 0.943848C10.1199 0.756348 10.8465 0.658691 11.6277 0.650879C12.409 0.650879 13.1395 0.748535 13.8192 0.943848C14.4988 1.13916 15.1668 1.44775 15.8231 1.86963C16.3777 2.229 16.9363 2.52197 17.4988 2.74854C18.0613 2.9751 18.6317 3.15088 19.2098 3.27588C19.7879 3.40088 20.3856 3.48682 21.0027 3.53369C21.6199 3.58057 22.2488 3.604 22.8895 3.604V9.604H21.3895V5.08057C20.5848 5.0415 19.8582 4.94385 19.2098 4.7876C18.5613 4.63135 17.9598 4.43994 17.4051 4.21338C16.8504 3.98682 16.3348 3.75635 15.8582 3.52197C15.3817 3.2876 14.9168 3.06104 14.4637 2.84229C14.0106 2.62354 13.5535 2.45557 13.0926 2.33838C12.6317 2.22119 12.1473 2.15088 11.6395 2.12744C11.1238 2.12744 10.6395 2.19385 10.1863 2.32666C9.73322 2.45947 9.27618 2.63135 8.81525 2.84229C8.35431 3.05322 7.88556 3.27588 7.409 3.51025C6.93243 3.74463 6.42072 3.979 5.87384 4.21338C5.32697 4.44775 4.7254 4.63525 4.06915 4.77588C3.4129 4.9165 2.68634 5.01807 1.88947 5.08057ZM23.5574 23.104C23.5574 23.3071 23.5184 23.4985 23.4402 23.6782C23.3621 23.8579 23.2527 24.0142 23.1121 24.147C22.9715 24.2798 22.8113 24.3892 22.6317 24.4751C22.452 24.561 22.2606 24.604 22.0574 24.604H13.2215C13.0184 24.604 12.827 24.5649 12.6473 24.4868C12.4676 24.4087 12.3113 24.2993 12.1785 24.1587C12.0457 24.0181 11.9363 23.8579 11.8504 23.6782C11.7645 23.4985 11.7215 23.3071 11.7215 23.104C11.7215 22.9243 11.7957 22.6392 11.9442 22.2485C12.0926 21.8579 12.2879 21.4087 12.5301 20.9009C12.7723 20.3931 13.034 19.8657 13.3152 19.3188C13.5965 18.772 13.8777 18.2446 14.159 17.7368C14.4402 17.229 14.6863 16.772 14.8973 16.3657C15.1082 15.9595 15.2723 15.647 15.3895 15.4282V12.604H13.8895V11.104H21.3895V12.604H19.8895V15.4282C19.991 15.6392 20.1512 15.9478 20.3699 16.354C20.5887 16.7603 20.8387 17.2173 21.1199 17.7251C21.4012 18.2329 21.6824 18.7642 21.9637 19.3188C22.2449 19.8735 22.5067 20.4009 22.7488 20.9009C22.991 21.4009 23.1824 21.8462 23.3231 22.2368C23.4637 22.6274 23.5418 22.9165 23.5574 23.104ZM18.3895 12.604H16.8895V15.7798L14.7215 20.104H20.5574L18.3895 15.7798V12.604Z" fill="white"/>
</svg>
