<svg width="22" height="25" viewBox="0 0 22 25" fill="none" xmlns="http://www.w3.org/2000/svg">
<path opacity="0.5" d="M21.4734 18.3807C21.4734 18.8026 21.3953 19.201 21.2391 19.576C21.0828 19.951 20.8563 20.2908 20.5594 20.5955L16.2234 24.9197L11.8875 20.5955C11.5906 20.2986 11.3641 19.9627 11.2078 19.5877C11.0516 19.2127 10.9734 18.8104 10.9734 18.3807C10.9734 17.951 11.0555 17.5447 11.2195 17.1619C11.3836 16.7791 11.6063 16.4471 11.8875 16.1658C12.1688 15.8846 12.4969 15.658 12.8719 15.4861C13.2469 15.3143 13.657 15.2322 14.1024 15.2401C14.493 15.2401 14.8719 15.3065 15.2391 15.4393C15.6063 15.5721 15.9344 15.7791 16.2234 16.0604C16.5203 15.7869 16.8484 15.5838 17.2078 15.451C17.5672 15.3182 17.9461 15.2479 18.3445 15.2401C18.7742 15.2401 19.1805 15.3221 19.5633 15.4861C19.9461 15.6502 20.2781 15.8729 20.5594 16.1541C20.8406 16.4354 21.0633 16.7713 21.2274 17.1619C21.3914 17.5526 21.4734 17.9588 21.4734 18.3807ZM19.9734 18.3807C19.9734 18.1541 19.9305 17.9432 19.8445 17.7479C19.7586 17.5526 19.6414 17.3768 19.493 17.2205C19.3445 17.0643 19.1727 16.9471 18.9774 16.869C18.782 16.7908 18.5672 16.7479 18.3328 16.7401C17.8875 16.7401 17.5047 16.9002 17.1844 17.2205L16.2234 18.1815L15.2625 17.2205C15.1063 17.0643 14.9305 16.9471 14.7352 16.869C14.5399 16.7908 14.3328 16.7479 14.1141 16.7401C13.8875 16.7401 13.6766 16.783 13.4813 16.869C13.2859 16.9549 13.1102 17.0721 12.9539 17.2205C12.7977 17.369 12.6805 17.5408 12.6024 17.7361C12.5242 17.9315 12.4813 18.1463 12.4734 18.3807C12.4734 18.826 12.6336 19.2088 12.9539 19.5291L16.2234 22.7986L19.493 19.5291C19.8133 19.2088 19.9734 18.826 19.9734 18.3807ZM1.97345 23.4901H12.1336L13.6453 24.9901H0.47345V3.99005H6.47345C6.47345 3.57599 6.55157 3.18927 6.70782 2.8299C6.86407 2.47052 7.07892 2.15021 7.35236 1.86896C7.62579 1.58771 7.9422 1.37286 8.30157 1.22443C8.66095 1.07599 9.05157 0.997864 9.47345 0.990051C9.88751 0.990051 10.2742 1.06818 10.6336 1.22443C10.993 1.38068 11.3133 1.59552 11.5945 1.86896C11.8758 2.1424 12.0906 2.4588 12.2391 2.81818C12.3875 3.17755 12.4656 3.56818 12.4734 3.99005H18.4734V13.3768H18.4149C18.3992 13.3768 18.3758 13.3729 18.3445 13.3651C18.1102 13.3651 17.8797 13.3846 17.6531 13.4236C17.4266 13.4627 17.2 13.5135 16.9734 13.576V5.49005H15.4734V8.49005H3.47345V5.49005H1.97345V23.4901ZM4.97345 5.49005V6.99005H13.9734V5.49005H10.9734V3.99005C10.9734 3.67755 10.8914 3.40411 10.7274 3.16974C10.5633 2.93536 10.3406 2.74786 10.0594 2.60724C9.8797 2.52911 9.68439 2.49005 9.47345 2.49005C9.26251 2.49005 9.0672 2.52911 8.88751 2.60724C8.60626 2.74005 8.38361 2.92365 8.21954 3.15802C8.05548 3.3924 7.97345 3.66974 7.97345 3.99005V5.49005H4.97345Z" fill="white"/>
</svg>
