<svg width="25" height="21" viewBox="0 0 25 21" fill="none" xmlns="http://www.w3.org/2000/svg">
<path opacity="0.5" d="M11.4852 14.0366L9.98517 15.5366H6.97345C6.14532 15.5366 5.36798 15.3803 4.64142 15.0678C3.91486 14.7553 3.28204 14.3256 2.74298 13.7788C2.20392 13.2319 1.77423 12.5952 1.45392 11.8686C1.13361 11.142 0.97345 10.3647 0.97345 9.53657C0.97345 8.70844 1.1297 7.9311 1.4422 7.20454C1.7547 6.47797 2.18439 5.84516 2.73126 5.3061C3.27814 4.76704 3.91486 4.33735 4.64142 4.01704C5.36798 3.69672 6.14532 3.53657 6.97345 3.53657C7.33282 3.53657 7.69611 3.57172 8.06329 3.64204C8.37579 3.15766 8.73517 2.72407 9.14142 2.34125C9.54767 1.95844 9.99689 1.63422 10.4891 1.3686C10.9813 1.10297 11.4969 0.895941 12.0359 0.747504C12.575 0.599066 13.1375 0.528754 13.7234 0.536566C14.4734 0.536566 15.1922 0.653754 15.8797 0.888129C16.5672 1.1225 17.2 1.45844 17.7781 1.89594C18.3563 2.33344 18.8484 2.84907 19.2547 3.44282C19.6609 4.03657 19.9774 4.70063 20.2039 5.435C19.9539 5.59125 19.7274 5.77485 19.5242 5.98579C19.3211 6.19672 19.1141 6.40766 18.9031 6.6186C18.8172 5.96235 18.6258 5.35688 18.3289 4.80219C18.032 4.2475 17.6492 3.76313 17.1805 3.34907C16.7117 2.935 16.1844 2.61469 15.5984 2.38813C15.0125 2.16157 14.3875 2.04438 13.7234 2.03657C13.2313 2.03657 12.7586 2.10297 12.3055 2.23579C11.8524 2.3686 11.4266 2.5561 11.0281 2.79829C10.6297 3.04047 10.2664 3.33735 9.93829 3.68891C9.61017 4.04047 9.32892 4.42719 9.09454 4.84907L8.80157 5.38813C8.5047 5.28657 8.20782 5.20454 7.91095 5.14204C7.61407 5.07954 7.30157 5.04438 6.97345 5.03657C6.34845 5.03657 5.76642 5.15375 5.22736 5.38813C4.68829 5.6225 4.21173 5.94282 3.79767 6.34907C3.38361 6.75532 3.05939 7.23579 2.82501 7.79047C2.59064 8.34516 2.47345 8.92719 2.47345 9.53657C2.47345 10.1616 2.59064 10.7436 2.82501 11.2827C3.05939 11.8217 3.3797 12.2983 3.78595 12.7123C4.1922 13.1264 4.66876 13.4506 5.21564 13.685C5.76251 13.9194 6.34845 14.0366 6.97345 14.0366H11.4852ZM24.9734 8.85688C24.9734 9.16157 24.9149 9.45844 24.7977 9.7475C24.6805 10.0366 24.5125 10.2905 24.2938 10.5092L15.8914 18.9116L11.4734 20.0131L12.575 15.5952L20.9774 7.20454C21.2039 6.97797 21.4578 6.81 21.7391 6.70063C22.0203 6.59125 22.3172 6.53657 22.6297 6.53657C22.9578 6.53657 23.2625 6.59516 23.5438 6.71235C23.825 6.82954 24.075 6.98969 24.2938 7.19282C24.5125 7.39594 24.6766 7.64204 24.7859 7.9311C24.8953 8.22016 24.9578 8.52875 24.9734 8.85688ZM23.4734 8.85688C23.4734 8.61469 23.3953 8.41938 23.2391 8.27094C23.0828 8.1225 22.8797 8.04438 22.6297 8.03657C22.5203 8.03657 22.4149 8.05219 22.3133 8.08344C22.2117 8.11469 22.1219 8.17329 22.0438 8.25922L13.9344 16.3686L13.5359 17.9506L15.118 17.5522L23.2274 9.45454C23.3914 9.29047 23.4734 9.09125 23.4734 8.85688Z" fill="white"/>
</svg>
