<svg width="25" height="25" viewBox="0 0 25 25" fill="none" xmlns="http://www.w3.org/2000/svg">
<path opacity="0.5" d="M12.9734 0.721802C14.075 0.721802 15.1375 0.862427 16.1609 1.14368C17.1844 1.42493 18.1414 1.82727 19.032 2.35071C19.9227 2.87415 20.7313 3.49915 21.4578 4.22571C22.1844 4.95227 22.8094 5.76477 23.3328 6.66321C23.8563 7.56165 24.2586 8.51868 24.5399 9.5343C24.8211 10.5499 24.9656 11.6124 24.9734 12.7218C24.9734 13.8234 24.8328 14.8859 24.5516 15.9093C24.2703 16.9327 23.868 17.8898 23.3445 18.7804C22.8211 19.671 22.1961 20.4796 21.4695 21.2062C20.743 21.9327 19.9305 22.5577 19.032 23.0812C18.1336 23.6046 17.1766 24.007 16.1609 24.2882C15.1453 24.5695 14.0828 24.714 12.9734 24.7218C12.5594 24.7218 12.1727 24.6437 11.8133 24.4874C11.4539 24.3312 11.1375 24.1163 10.8641 23.8429C10.5906 23.5695 10.3758 23.2531 10.2195 22.8937C10.0633 22.5343 9.98126 22.1437 9.97345 21.7218C9.97345 21.339 10.0086 21.007 10.0789 20.7257C10.1492 20.4445 10.243 20.1827 10.3602 19.9406C10.4774 19.6984 10.5984 19.4796 10.7234 19.2843C10.8484 19.089 10.9695 18.8859 11.0867 18.6749C11.2039 18.464 11.2938 18.2452 11.3563 18.0187C11.4188 17.7921 11.4578 17.5265 11.4734 17.2218C11.4734 16.8156 11.3953 16.4288 11.2391 16.0616C11.0828 15.6945 10.868 15.3781 10.5945 15.1124C10.3211 14.8468 10.0008 14.632 9.63361 14.4679C9.26642 14.3038 8.8797 14.2218 8.47345 14.2218C8.17657 14.2218 7.91486 14.257 7.68829 14.3273C7.46173 14.3976 7.24298 14.4913 7.03204 14.6085C6.82111 14.7257 6.61407 14.8468 6.41095 14.9718C6.20782 15.0968 5.98907 15.2179 5.7547 15.3351C5.52032 15.4523 5.25861 15.5421 4.96954 15.6046C4.68048 15.6671 4.34845 15.7062 3.97345 15.7218C3.55939 15.7218 3.17267 15.6437 2.81329 15.4874C2.45392 15.3312 2.13751 15.1163 1.86407 14.8429C1.59064 14.5695 1.37579 14.2531 1.21954 13.8937C1.06329 13.5343 0.981262 13.1437 0.97345 12.7218C0.97345 11.6202 1.11407 10.5577 1.39532 9.5343C1.67657 8.51086 2.07892 7.55383 2.60236 6.66321C3.12579 5.77258 3.75079 4.96399 4.47736 4.23743C5.20392 3.51086 6.01642 2.88586 6.91486 2.36243C7.81329 1.83899 8.76642 1.43665 9.77423 1.1554C10.782 0.874146 11.8484 0.729614 12.9734 0.721802ZM12.9734 23.2218C13.9344 23.2218 14.8602 23.0968 15.7508 22.8468C16.6414 22.5968 17.4774 22.2452 18.2586 21.7921C19.0399 21.339 19.7508 20.7882 20.3914 20.1398C21.032 19.4913 21.5789 18.7843 22.032 18.0187C22.4852 17.2531 22.8406 16.4171 23.0984 15.5109C23.3563 14.6046 23.4813 13.6749 23.4734 12.7218C23.4734 11.7609 23.3484 10.8351 23.0984 9.94446C22.8484 9.05383 22.4969 8.2179 22.0438 7.43665C21.5906 6.6554 21.0399 5.94446 20.3914 5.30383C19.743 4.66321 19.0359 4.11633 18.2703 3.66321C17.5047 3.21008 16.6688 2.85461 15.7625 2.5968C14.8563 2.33899 13.9266 2.21399 12.9734 2.2218C12.0125 2.2218 11.0867 2.3468 10.1961 2.5968C9.30548 2.8468 8.46954 3.19836 7.68829 3.65149C6.90704 4.10461 6.19611 4.6554 5.55548 5.30383C4.91486 5.95227 4.36798 6.6593 3.91486 7.42493C3.46173 8.19055 3.10626 9.02649 2.84845 9.93274C2.59064 10.839 2.46564 11.7687 2.47345 12.7218C2.47345 12.9327 2.51251 13.1281 2.59064 13.3077C2.66876 13.4874 2.77423 13.6437 2.90704 13.7765C3.03986 13.9093 3.20001 14.0187 3.38751 14.1046C3.57501 14.1906 3.77032 14.2296 3.97345 14.2218C4.27032 14.2218 4.53204 14.1866 4.75861 14.1163C4.98517 14.046 5.20392 13.9523 5.41486 13.8351C5.62579 13.7179 5.82892 13.5968 6.02423 13.4718C6.21954 13.3468 6.43439 13.2257 6.66876 13.1085C6.90314 12.9913 7.16486 12.9015 7.45392 12.839C7.74298 12.7765 8.08282 12.7374 8.47345 12.7218C9.09845 12.7218 9.68439 12.839 10.2313 13.0734C10.7781 13.3077 11.2547 13.6281 11.6609 14.0343C12.0672 14.4406 12.3875 14.9171 12.6219 15.464C12.8563 16.0109 12.9734 16.5968 12.9734 17.2218C12.9734 17.6046 12.9383 17.9406 12.868 18.2296C12.7977 18.5187 12.7039 18.7804 12.5867 19.0148C12.4695 19.2491 12.3484 19.464 12.2234 19.6593C12.0984 19.8546 11.9774 20.0577 11.8602 20.2687C11.743 20.4796 11.6531 20.6984 11.5906 20.9249C11.5281 21.1515 11.4891 21.4171 11.4734 21.7218C11.4734 21.9327 11.5125 22.1281 11.5906 22.3077C11.6688 22.4874 11.7742 22.6437 11.907 22.7765C12.0399 22.9093 12.2 23.0187 12.3875 23.1046C12.575 23.1906 12.7703 23.2296 12.9734 23.2218ZM6.97345 8.2218C7.18439 8.2218 7.3797 8.26086 7.55939 8.33899C7.73907 8.41711 7.89532 8.52258 8.02814 8.6554C8.16095 8.78821 8.27032 8.94836 8.35626 9.13586C8.4422 9.32336 8.48126 9.51868 8.47345 9.7218C8.47345 9.93274 8.43439 10.1281 8.35626 10.3077C8.27814 10.4874 8.17267 10.6437 8.03986 10.7765C7.90704 10.9093 7.74689 11.0187 7.55939 11.1046C7.37189 11.1906 7.17657 11.2296 6.97345 11.2218C6.76251 11.2218 6.5672 11.1827 6.38751 11.1046C6.20782 11.0265 6.05157 10.921 5.91876 10.7882C5.78595 10.6554 5.67657 10.4952 5.59064 10.3077C5.5047 10.1202 5.46564 9.92493 5.47345 9.7218C5.47345 9.51086 5.51251 9.31555 5.59064 9.13586C5.66876 8.95618 5.77423 8.79993 5.90704 8.66711C6.03986 8.5343 6.20001 8.42493 6.38751 8.33899C6.57501 8.25305 6.77032 8.21399 6.97345 8.2218ZM11.4734 5.2218C11.6844 5.2218 11.8797 5.26086 12.0594 5.33899C12.2391 5.41711 12.3953 5.52258 12.5281 5.6554C12.6609 5.78821 12.7703 5.94836 12.8563 6.13586C12.9422 6.32336 12.9813 6.51868 12.9734 6.7218C12.9734 6.93274 12.9344 7.12805 12.8563 7.30774C12.7781 7.48743 12.6727 7.64368 12.5399 7.77649C12.407 7.9093 12.2469 8.01868 12.0594 8.10461C11.8719 8.19055 11.6766 8.22961 11.4734 8.2218C11.2625 8.2218 11.0672 8.18274 10.8875 8.10461C10.7078 8.02649 10.5516 7.92102 10.4188 7.78821C10.2859 7.6554 10.1766 7.49524 10.0906 7.30774C10.0047 7.12024 9.96564 6.92493 9.97345 6.7218C9.97345 6.51086 10.0125 6.31555 10.0906 6.13586C10.1688 5.95618 10.2742 5.79993 10.407 5.66711C10.5399 5.5343 10.7 5.42493 10.8875 5.33899C11.075 5.25305 11.2703 5.21399 11.4734 5.2218ZM17.4734 9.7218C17.2625 9.7218 17.0672 9.68274 16.8875 9.60461C16.7078 9.52649 16.5516 9.42102 16.4188 9.28821C16.2859 9.1554 16.1766 8.99524 16.0906 8.80774C16.0047 8.62024 15.9656 8.42493 15.9734 8.2218C15.9734 8.01086 16.0125 7.81555 16.0906 7.63586C16.1688 7.45618 16.2742 7.29993 16.407 7.16711C16.5399 7.0343 16.7 6.92493 16.8875 6.83899C17.075 6.75305 17.2703 6.71399 17.4734 6.7218C17.6844 6.7218 17.8797 6.76086 18.0594 6.83899C18.2391 6.91711 18.3953 7.02258 18.5281 7.1554C18.6609 7.28821 18.7703 7.44836 18.8563 7.63586C18.9422 7.82336 18.9813 8.01868 18.9734 8.2218C18.9734 8.43274 18.9344 8.62805 18.8563 8.80774C18.7781 8.98743 18.6727 9.14368 18.5399 9.27649C18.407 9.4093 18.2469 9.51868 18.0594 9.60461C17.8719 9.69055 17.6766 9.72961 17.4734 9.7218ZM18.9734 12.7218C19.1844 12.7218 19.3797 12.7609 19.5594 12.839C19.7391 12.9171 19.8953 13.0226 20.0281 13.1554C20.1609 13.2882 20.2703 13.4484 20.3563 13.6359C20.4422 13.8234 20.4813 14.0187 20.4734 14.2218C20.4734 14.4327 20.4344 14.6281 20.3563 14.8077C20.2781 14.9874 20.1727 15.1437 20.0399 15.2765C19.907 15.4093 19.7469 15.5187 19.5594 15.6046C19.3719 15.6906 19.1766 15.7296 18.9734 15.7218C18.7625 15.7218 18.5672 15.6827 18.3875 15.6046C18.2078 15.5265 18.0516 15.421 17.9188 15.2882C17.7859 15.1554 17.6766 14.9952 17.5906 14.8077C17.5047 14.6202 17.4656 14.4249 17.4734 14.2218C17.4734 14.0109 17.5125 13.8156 17.5906 13.6359C17.6688 13.4562 17.7742 13.2999 17.907 13.1671C18.0399 13.0343 18.2 12.9249 18.3875 12.839C18.575 12.7531 18.7703 12.714 18.9734 12.7218ZM15.9734 17.2218C16.1844 17.2218 16.3797 17.2609 16.5594 17.339C16.7391 17.4171 16.8953 17.5226 17.0281 17.6554C17.1609 17.7882 17.2703 17.9484 17.3563 18.1359C17.4422 18.3234 17.4813 18.5187 17.4734 18.7218C17.4734 18.9327 17.4344 19.1281 17.3563 19.3077C17.2781 19.4874 17.1727 19.6437 17.0399 19.7765C16.907 19.9093 16.7469 20.0187 16.5594 20.1046C16.3719 20.1906 16.1766 20.2296 15.9734 20.2218C15.7625 20.2218 15.5672 20.1827 15.3875 20.1046C15.2078 20.0265 15.0516 19.921 14.9188 19.7882C14.7859 19.6554 14.6766 19.4952 14.5906 19.3077C14.5047 19.1202 14.4656 18.9249 14.4734 18.7218C14.4734 18.5109 14.5125 18.3156 14.5906 18.1359C14.6688 17.9562 14.7742 17.7999 14.907 17.6671C15.0399 17.5343 15.2 17.4249 15.3875 17.339C15.575 17.2531 15.7703 17.214 15.9734 17.2218Z" fill="white"/>
</svg>
