<svg width="25" height="25" viewBox="0 0 25 25" fill="none" xmlns="http://www.w3.org/2000/svg">
<path opacity="0.5" d="M12.9734 0.695801C14.075 0.695801 15.1375 0.836426 16.1609 1.11768C17.1844 1.39893 18.1414 1.80127 19.032 2.32471C19.9227 2.84814 20.7313 3.47314 21.4578 4.19971C22.1844 4.92627 22.8094 5.73877 23.3328 6.63721C23.8563 7.53564 24.2586 8.49268 24.5399 9.5083C24.8211 10.5239 24.9656 11.5864 24.9734 12.6958C24.9734 13.7974 24.8328 14.8599 24.5516 15.8833C24.2703 16.9067 23.868 17.8638 23.3445 18.7544C22.8211 19.645 22.1961 20.4536 21.4695 21.1802C20.743 21.9067 19.9305 22.5317 19.032 23.0552C18.1336 23.5786 17.1766 23.981 16.1609 24.2622C15.1453 24.5435 14.0828 24.688 12.9734 24.6958C11.8719 24.6958 10.8094 24.5552 9.78595 24.2739C8.76251 23.9927 7.80548 23.5903 6.91486 23.0669C6.02423 22.5435 5.21564 21.9185 4.48907 21.1919C3.76251 20.4653 3.13751 19.6528 2.61407 18.7544C2.09064 17.856 1.68829 16.9028 1.40704 15.895C1.12579 14.8872 0.981262 13.8208 0.97345 12.6958C0.97345 11.5942 1.11407 10.5317 1.39532 9.5083C1.67657 8.48486 2.07892 7.52783 2.60236 6.63721C3.12579 5.74658 3.75079 4.93799 4.47736 4.21143C5.20392 3.48486 6.01642 2.85986 6.91486 2.33643C7.81329 1.81299 8.76642 1.41064 9.77423 1.12939C10.782 0.848145 11.8484 0.703613 12.9734 0.695801ZM12.9734 23.1958C13.9344 23.1958 14.8602 23.0708 15.7508 22.8208C16.6414 22.5708 17.4774 22.2192 18.2586 21.7661C19.0399 21.313 19.7508 20.7622 20.3914 20.1138C21.032 19.4653 21.5789 18.7583 22.032 17.9927C22.4852 17.2271 22.8406 16.3911 23.0984 15.4849C23.3563 14.5786 23.4813 13.6489 23.4734 12.6958C23.4734 11.7349 23.3484 10.8091 23.0984 9.91846C22.8484 9.02783 22.4969 8.19189 22.0438 7.41064C21.5906 6.62939 21.0399 5.91846 20.3914 5.27783C19.743 4.63721 19.0359 4.09033 18.2703 3.63721C17.5047 3.18408 16.6688 2.82861 15.7625 2.5708C14.8563 2.31299 13.9266 2.18799 12.9734 2.1958C12.4656 2.1958 11.9656 2.23096 11.4734 2.30127V23.0903C11.9656 23.1606 12.4656 23.1958 12.9734 23.1958Z" fill="white"/>
</svg>
