<svg width="24" height="22" viewBox="0 0 24 22" fill="none" xmlns="http://www.w3.org/2000/svg">
<path opacity="0.5" d="M23.2703 21.5591H21.7703C21.7703 20.9419 21.6531 20.3598 21.4188 19.813C21.1844 19.2661 20.8641 18.7895 20.4578 18.3833C20.0516 17.977 19.5711 17.6528 19.0164 17.4106C18.4617 17.1684 17.8797 17.0512 17.2703 17.0591C16.6453 17.0591 16.0594 17.1762 15.5125 17.4106C14.9656 17.645 14.4891 17.9653 14.0828 18.3716C13.6766 18.7778 13.3563 19.2544 13.1219 19.8012C12.8875 20.3481 12.7703 20.9341 12.7703 21.5591H11.2703C11.2703 20.9887 11.3484 20.438 11.5047 19.9067C11.6609 19.3755 11.8836 18.8755 12.1727 18.4067C12.4617 17.938 12.8094 17.5161 13.2156 17.1411C13.6219 16.7661 14.0828 16.4458 14.5984 16.1801C14.0125 15.7426 13.5633 15.2153 13.2508 14.5981C12.9383 13.9809 12.7781 13.3012 12.7703 12.5591C12.7703 11.9341 12.8875 11.3481 13.1219 10.8012C13.3563 10.2544 13.6766 9.7778 14.0828 9.37155C14.4891 8.9653 14.9656 8.64499 15.5125 8.41061C16.0594 8.17624 16.6453 8.05905 17.2703 8.05905C17.8875 8.05905 18.4695 8.17624 19.0164 8.41061C19.5633 8.64499 20.0399 8.9653 20.4461 9.37155C20.8524 9.7778 21.1766 10.2583 21.4188 10.813C21.6609 11.3676 21.7781 11.9497 21.7703 12.5591C21.7703 13.2856 21.6141 13.9614 21.3016 14.5864C20.9891 15.2114 20.5359 15.7426 19.9422 16.1801C20.45 16.4301 20.907 16.7426 21.3133 17.1176C21.7195 17.4926 22.0711 17.9184 22.368 18.395C22.6649 18.8716 22.8875 19.3755 23.0359 19.9067C23.1844 20.438 23.2625 20.9887 23.2703 21.5591ZM20.2703 12.5591C20.2703 12.145 20.1922 11.7583 20.0359 11.3989C19.8797 11.0395 19.6649 10.7192 19.3914 10.438C19.118 10.1567 18.8016 9.94186 18.4422 9.79343C18.0828 9.64499 17.6922 9.56686 17.2703 9.55905C16.8563 9.55905 16.4695 9.63718 16.1102 9.79343C15.7508 9.94968 15.4305 10.1645 15.1492 10.438C14.868 10.7114 14.6531 11.0278 14.5047 11.3872C14.3563 11.7466 14.2781 12.1372 14.2703 12.5591C14.2703 12.9731 14.3484 13.3598 14.5047 13.7192C14.6609 14.0786 14.8758 14.3989 15.1492 14.6801C15.4227 14.9614 15.7391 15.1762 16.0984 15.3247C16.4578 15.4731 16.8484 15.5512 17.2703 15.5591C17.6844 15.5591 18.0711 15.4809 18.4305 15.3247C18.7899 15.1684 19.1102 14.9536 19.3914 14.6801C19.6727 14.4067 19.8875 14.0903 20.0359 13.7309C20.1844 13.3716 20.2625 12.9809 20.2703 12.5591ZM12.7586 8.05905H8.39923L10.9305 16.9184C10.7274 17.2075 10.5477 17.4926 10.3914 17.7739C10.2352 18.0551 10.0906 18.3637 9.95782 18.6997L0.676575 7.2739L6.96954 0.559052H15.5711L21.8641 7.2739L21.4539 7.7778C21.1258 7.50436 20.7938 7.26608 20.4578 7.06296C20.1219 6.85983 19.7508 6.69186 19.3445 6.55905H19.4383L15.2313 2.05905H13.7313L15.3953 6.50046C14.8797 6.64108 14.407 6.8403 13.9774 7.09811C13.5477 7.35593 13.1414 7.67233 12.7586 8.04733V8.05905ZM12.3719 2.05905H10.1688L8.48126 6.55905H14.0594L12.3719 2.05905ZM7.30939 2.05905L3.10236 6.55905H7.12189L8.80939 2.05905H7.30939ZM9.30157 15.8755L7.06329 8.05905H2.95001L9.30157 15.8755Z" fill="white"/>
</svg>
